<svg width="16" height="16" viewBox="0 0 16 16" fill="none" xmlns="http://www.w3.org/2000/svg">
<path d="M7.20005 13.94V8.46L2.40005 5.68V11.16L7.20005 13.94ZM8.80005 13.94L13.6 11.16V5.68L8.80005 8.46V13.94ZM8.00005 7.08L12.74 4.34L8.00005 1.6L3.26005 4.34L8.00005 7.08ZM1.60005 12.56C1.34672 12.4133 1.15005 12.22 1.01005 11.98C0.870049 11.74 0.800049 11.4733 0.800049 11.18V4.82C0.800049 4.52667 0.870049 4.26 1.01005 4.02C1.15005 3.78 1.34672 3.58667 1.60005 3.44L7.20005 0.22C7.45338 0.0733333 7.72005 0 8.00005 0C8.28005 0 8.54671 0.0733333 8.80005 0.22L14.4 3.44C14.6534 3.58667 14.85 3.78 14.99 4.02C15.13 4.26 15.2 4.52667 15.2 4.82V11.18C15.2 11.4733 15.13 11.74 14.99 11.98C14.85 12.22 14.6534 12.4133 14.4 12.56L8.80005 15.78C8.54671 15.9267 8.28005 16 8.00005 16C7.72005 16 7.45338 15.9267 7.20005 15.78L1.60005 12.56Z" fill="#595959"/>
</svg>
