<svg xmlns="http://www.w3.org/2000/svg" width="20" height="20" fill="none"><path fill="#595959" fill-opacity=".3" fill-rule="evenodd" d="M.778 9.268 8.39 5.052a3.348 3.348 0 0 1 1.61-.41c.566 0 1.103.137 1.61.41l7.612 4.216c.273.156.41.4.41.732 0 .332-.137.576-.41.732l-7.612 4.216a3.347 3.347 0 0 1-1.61.41 3.347 3.347 0 0 1-1.61-.41L.778 10.732c-.274-.156-.41-.4-.41-.732 0-.332.136-.576.41-.732Zm7.465-1.025A2.396 2.396 0 0 0 7.511 10c0 .683.244 1.269.732 1.757a2.396 2.396 0 0 0 1.757.732c.683 0 1.269-.244 1.757-.732A2.395 2.395 0 0 0 12.489 10c0-.683-.244-1.269-.732-1.757A2.396 2.396 0 0 0 10 7.511c-.683 0-1.269.244-1.757.732Z" clip-rule="evenodd"/><path fill="#595959" fill-rule="evenodd" d="M10.305 15.357h.063c.566 0 1.103-.136 1.61-.41l7.612-4.215c.273-.156.41-.4.41-.732 0-.332-.137-.576-.41-.732l-7.612-4.216a3.348 3.348 0 0 0-1.673-.41v2.87h.063c.683 0 1.269.243 1.756.731.489.488.732 1.074.732 1.757 0 .683-.243 1.269-.732 1.757a2.396 2.396 0 0 1-1.82.73v2.87Z" clip-rule="evenodd"/></svg>