<svg width="16" height="16" viewBox="0 0 16 16" fill="none" xmlns="http://www.w3.org/2000/svg">
<path d="M1.17895 16L0 14.8211L2.61053 12.2105H0.421053V10.5263H5.47368V15.5789H3.78947V13.3895L1.17895 16ZM14.8211 16L12.2105 13.3895V15.5789H10.5263V10.5263H15.5789V12.2105H13.3895L16 14.8211L14.8211 16ZM0.421053 5.47368V3.78947H2.61053L0 1.17895L1.17895 0L3.78947 2.61053V0.421053H5.47368V5.47368H0.421053ZM10.5263 5.47368V0.421053H12.2105V2.61053L14.8211 0L16 1.17895L13.3895 3.78947H15.5789V5.47368H10.5263Z" fill="#595959"/>
<circle cx="7.99999" cy="8" r="1.7" fill="#595959"/>
</svg>
