<svg width="16" height="16" viewBox="0 0 16 16" fill="none" xmlns="http://www.w3.org/2000/svg">
<path d="M0.760235 1.52047C0.544863 1.52047 0.364314 1.44761 0.218588 1.30188C0.0728626 1.15616 0 0.975608 0 0.760235C0 0.544863 0.0728626 0.364313 0.218588 0.218588C0.364314 0.0728622 0.544863 0 0.760235 0C0.975608 0 1.15616 0.0728622 1.30188 0.218588C1.44761 0.364313 1.52047 0.544863 1.52047 0.760235C1.52047 0.975608 1.44761 1.15616 1.30188 1.30188C1.15616 1.44761 0.975608 1.52047 0.760235 1.52047ZM4.38 1.52047C4.16463 1.52047 3.98416 1.44761 3.83859 1.30188C3.69286 1.15616 3.62 0.975608 3.62 0.760235C3.62 0.544863 3.69286 0.364313 3.83859 0.218588C3.98416 0.0728622 4.16463 0 4.38 0C4.59537 0 4.77592 0.0728622 4.92165 0.218588C5.06737 0.364313 5.14023 0.544863 5.14023 0.760235C5.14023 0.975608 5.06737 1.15616 4.92165 1.30188C4.77592 1.44761 4.59537 1.52047 4.38 1.52047ZM8 1.52047C7.78463 1.52047 7.60408 1.44761 7.45835 1.30188C7.31263 1.15616 7.23977 0.975608 7.23977 0.760235C7.23977 0.544863 7.31263 0.364313 7.45835 0.218588C7.60408 0.0728622 7.78463 0 8 0C8.21537 0 8.39592 0.0728622 8.54165 0.218588C8.68737 0.364313 8.76023 0.544863 8.76023 0.760235C8.76023 0.975608 8.68737 1.15616 8.54165 1.30188C8.39592 1.44761 8.21537 1.52047 8 1.52047ZM11.62 1.52047C11.4046 1.52047 11.2241 1.44761 11.0784 1.30188C10.9326 1.15616 10.8598 0.975608 10.8598 0.760235C10.8598 0.544863 10.9326 0.364313 11.0784 0.218588C11.2241 0.0728622 11.4046 0 11.62 0C11.8354 0 12.0158 0.0728622 12.1614 0.218588C12.3071 0.364313 12.38 0.544863 12.38 0.760235C12.38 0.975608 12.3071 1.15616 12.1614 1.30188C12.0158 1.44761 11.8354 1.52047 11.62 1.52047ZM15.2398 1.52047C15.0244 1.52047 14.8438 1.44761 14.6981 1.30188C14.5524 1.15616 14.4795 0.975608 14.4795 0.760235C14.4795 0.544863 14.5524 0.364313 14.6981 0.218588C14.8438 0.0728622 15.0244 0 15.2398 0C15.4551 0 15.6357 0.0728622 15.7814 0.218588C15.9271 0.364313 16 0.544863 16 0.760235C16 0.975608 15.9271 1.15616 15.7814 1.30188C15.6357 1.44761 15.4551 1.52047 15.2398 1.52047ZM0.760235 5.14024C0.544863 5.14024 0.364314 5.06737 0.218588 4.92165C0.0728626 4.77592 0 4.59537 0 4.38C0 4.16463 0.0728626 3.98416 0.218588 3.83859C0.364314 3.69286 0.544863 3.62 0.760235 3.62C0.975608 3.62 1.15616 3.69286 1.30188 3.83859C1.44761 3.98416 1.52047 4.16463 1.52047 4.38C1.52047 4.59537 1.44761 4.77592 1.30188 4.92165C1.15616 5.06737 0.975608 5.14024 0.760235 5.14024ZM15.2398 5.14024C15.0244 5.14024 14.8438 5.06737 14.6981 4.92165C14.5524 4.77592 14.4795 4.59537 14.4795 4.38C14.4795 4.16463 14.5524 3.98416 14.6981 3.83859C14.8438 3.69286 15.0244 3.62 15.2398 3.62C15.4551 3.62 15.6357 3.69286 15.7814 3.83859C15.9271 3.98416 16 4.16463 16 4.38C16 4.59537 15.9271 4.77592 15.7814 4.92165C15.6357 5.06737 15.4551 5.14024 15.2398 5.14024ZM0.760235 8.76023C0.544863 8.76023 0.364314 8.68737 0.218588 8.54165C0.0728626 8.39592 0 8.21537 0 8C0 7.78463 0.0728626 7.60408 0.218588 7.45835C0.364314 7.31263 0.544863 7.23977 0.760235 7.23977C0.975608 7.23977 1.15616 7.31263 1.30188 7.45835C1.44761 7.60408 1.52047 7.78463 1.52047 8C1.52047 8.21537 1.44761 8.39592 1.30188 8.54165C1.15616 8.68737 0.975608 8.76023 0.760235 8.76023ZM15.2398 8.76023C15.0244 8.76023 14.8438 8.68737 14.6981 8.54165C14.5524 8.39592 14.4795 8.21537 14.4795 8C14.4795 7.78463 14.5524 7.60408 14.6981 7.45835C14.8438 7.31263 15.0244 7.23977 15.2398 7.23977C15.4551 7.23977 15.6357 7.31263 15.7814 7.45835C15.9271 7.60408 16 7.78463 16 8C16 8.21537 15.9271 8.39592 15.7814 8.54165C15.6357 8.68737 15.4551 8.76023 15.2398 8.76023ZM0.760235 12.38C0.544863 12.38 0.364314 12.3071 0.218588 12.1614C0.0728626 12.0158 0 11.8354 0 11.62C0 11.4046 0.0728626 11.2241 0.218588 11.0784C0.364314 10.9326 0.544863 10.8598 0.760235 10.8598C0.975608 10.8598 1.15616 10.9326 1.30188 11.0784C1.44761 11.2241 1.52047 11.4046 1.52047 11.62C1.52047 11.8354 1.44761 12.0158 1.30188 12.1614C1.15616 12.3071 0.975608 12.38 0.760235 12.38ZM15.2398 12.38C15.0244 12.38 14.8438 12.3071 14.6981 12.1614C14.5524 12.0158 14.4795 11.8354 14.4795 11.62C14.4795 11.4046 14.5524 11.2241 14.6981 11.0784C14.8438 10.9326 15.0244 10.8598 15.2398 10.8598C15.4551 10.8598 15.6357 10.9326 15.7814 11.0784C15.9271 11.2241 16 11.4046 16 11.62C16 11.8354 15.9271 12.0158 15.7814 12.1614C15.6357 12.3071 15.4551 12.38 15.2398 12.38ZM0.760235 16C0.544863 16 0.364314 15.9271 0.218588 15.7814C0.0728626 15.6357 0 15.4551 0 15.2398C0 15.0244 0.0728626 14.8438 0.218588 14.6981C0.364314 14.5524 0.544863 14.4795 0.760235 14.4795C0.975608 14.4795 1.15616 14.5524 1.30188 14.6981C1.44761 14.8438 1.52047 15.0244 1.52047 15.2398C1.52047 15.4551 1.44761 15.6357 1.30188 15.7814C1.15616 15.9271 0.975608 16 0.760235 16ZM4.38 16C4.16463 16 3.98416 15.9271 3.83859 15.7814C3.69286 15.6357 3.62 15.4551 3.62 15.2398C3.62 15.0244 3.69286 14.8438 3.83859 14.6981C3.98416 14.5524 4.16463 14.4795 4.38 14.4795C4.59537 14.4795 4.77592 14.5524 4.92165 14.6981C5.06737 14.8438 5.14023 15.0244 5.14023 15.2398C5.14023 15.4551 5.06737 15.6357 4.92165 15.7814C4.77592 15.9271 4.59537 16 4.38 16ZM8 16C7.78463 16 7.60408 15.9271 7.45835 15.7814C7.31263 15.6357 7.23977 15.4551 7.23977 15.2398C7.23977 15.0244 7.31263 14.8438 7.45835 14.6981C7.60408 14.5524 7.78463 14.4795 8 14.4795C8.21537 14.4795 8.39592 14.5524 8.54165 14.6981C8.68737 14.8438 8.76023 15.0244 8.76023 15.2398C8.76023 15.4551 8.68737 15.6357 8.54165 15.7814C8.39592 15.9271 8.21537 16 8 16ZM11.62 16C11.4046 16 11.2241 15.9271 11.0784 15.7814C10.9326 15.6357 10.8598 15.4551 10.8598 15.2398C10.8598 15.0244 10.9326 14.8438 11.0784 14.6981C11.2241 14.5524 11.4046 14.4795 11.62 14.4795C11.8354 14.4795 12.0158 14.5524 12.1614 14.6981C12.3071 14.8438 12.38 15.0244 12.38 15.2398C12.38 15.4551 12.3071 15.6357 12.1614 15.7814C12.0158 15.9271 11.8354 16 11.62 16ZM15.2398 16C15.0244 16 14.8438 15.9271 14.6981 15.7814C14.5524 15.6357 14.4795 15.4551 14.4795 15.2398C14.4795 15.0244 14.5524 14.8438 14.6981 14.6981C14.8438 14.5524 15.0244 14.4795 15.2398 14.4795C15.4551 14.4795 15.6357 14.5524 15.7814 14.6981C15.9271 14.8438 16 15.0244 16 15.2398C16 15.4551 15.9271 15.6357 15.7814 15.7814C15.6357 15.9271 15.4551 16 15.2398 16ZM5.32118 12.38C4.85341 12.38 4.45294 12.2134 4.11976 11.8802C3.78659 11.5471 3.62 11.1466 3.62 10.6788V5.32118C3.62 4.85341 3.78659 4.45294 4.11976 4.11977C4.45294 3.78659 4.85341 3.62 5.32118 3.62H10.6788C11.1466 3.62 11.5471 3.78659 11.8802 4.11977C12.2134 4.45294 12.38 4.85341 12.38 5.32118V10.6788C12.38 11.1466 12.2134 11.5471 11.8802 11.8802C11.5471 12.2134 11.1466 12.38 10.6788 12.38H5.32118ZM5.32118 10.9682H10.6788C10.7632 10.9682 10.8325 10.9411 10.8868 10.8868C10.9411 10.8325 10.9682 10.7632 10.9682 10.6788V5.32118C10.9682 5.23679 10.9411 5.16745 10.8868 5.11318C10.8325 5.0589 10.7632 5.03176 10.6788 5.03176H5.32118C5.23678 5.03176 5.16745 5.0589 5.11318 5.11318C5.0589 5.16745 5.03176 5.23679 5.03176 5.32118V10.6788C5.03176 10.7632 5.0589 10.8325 5.11318 10.8868C5.16745 10.9411 5.23678 10.9682 5.32118 10.9682Z" fill="#595959"/>
</svg>
