<svg xmlns="http://www.w3.org/2000/svg" width="20" height="20" fill="none"><path fill="#595959" fill-opacity=".3" fill-rule="evenodd" d="m10.732.778 4.216 7.612c.273.507.41 1.044.41 1.61 0 .566-.137 1.103-.41 1.61l-4.216 7.612c-.156.273-.4.41-.732.41-.332 0-.576-.137-.732-.41L5.052 11.61a3.348 3.348 0 0 1-.41-1.61c0-.566.137-1.103.41-1.61L9.268.778c.156-.274.4-.41.732-.41.332 0 .576.136.732.41Zm1.025 7.465A2.396 2.396 0 0 0 10 7.511c-.683 0-1.269.244-1.757.732A2.396 2.396 0 0 0 7.511 10c0 .683.244 1.269.732 1.757a2.395 2.395 0 0 0 1.757.732c.683 0 1.269-.244 1.757-.732A2.395 2.395 0 0 0 12.489 10c0-.683-.244-1.269-.732-1.757Z" clip-rule="evenodd"/><path fill="#595959" fill-rule="evenodd" d="M4.643 10.305v.063c0 .566.136 1.103.41 1.61l4.215 7.612c.156.273.4.41.732.41.332 0 .576-.137.732-.41l4.216-7.612a3.347 3.347 0 0 0 .41-1.673h-2.87v.063c0 .683-.243 1.269-.731 1.756a2.395 2.395 0 0 1-1.757.732 2.395 2.395 0 0 1-1.757-.732 2.396 2.396 0 0 1-.73-1.82h-2.87Z" clip-rule="evenodd"/></svg>