<svg width="17" height="16" viewBox="0 0 17 16" fill="none" xmlns="http://www.w3.org/2000/svg">
<path d="M4.45919 16C3.87551 16 3.38665 15.7979 2.99261 15.3938C2.59856 14.9897 2.40154 14.4883 2.40154 13.8897V2.77721H2.19224C1.94456 2.77721 1.73268 2.68684 1.55659 2.5061C1.38035 2.32536 1.29224 2.10799 1.29224 1.85398C1.29224 1.59983 1.38035 1.38253 1.55659 1.20207C1.73268 1.02147 1.94456 0.931176 2.19224 0.931176H5.91782C5.91782 0.678026 6.00607 0.459507 6.18258 0.275618C6.35896 0.0918732 6.57335 0 6.82577 0H10.1587C10.4111 0 10.6255 0.0904419 10.8019 0.271325C10.9784 0.452351 11.0667 0.672302 11.0667 0.931176H14.7922C15.0399 0.931176 15.2518 1.02155 15.4279 1.20229C15.6041 1.38303 15.6922 1.6004 15.6922 1.85441C15.6922 2.10856 15.6041 2.32587 15.4279 2.50632C15.2518 2.68692 15.0399 2.77721 14.7922 2.77721H14.5829V13.8897C14.5829 14.4883 14.3859 14.9897 13.9919 15.3938C13.5978 15.7979 13.109 16 12.5253 16H4.45919ZM12.7829 2.77721H4.20154V13.8897C4.20154 13.9669 4.22568 14.0302 4.27396 14.0797C4.32224 14.1292 4.38398 14.154 4.45919 14.154H12.5253C12.6005 14.154 12.6622 14.1292 12.7105 14.0797C12.7588 14.0302 12.7829 13.9669 12.7829 13.8897V2.77721ZM6.75858 12.4153C7.00626 12.4153 7.21814 12.325 7.39424 12.1444C7.57019 11.9636 7.65817 11.7462 7.65817 11.4922V5.43894C7.65817 5.18494 7.57005 4.96756 7.39382 4.78682C7.21772 4.60622 7.00577 4.51592 6.75796 4.51592C6.51028 4.51592 6.2984 4.60622 6.12231 4.78682C5.94635 4.96756 5.85838 5.18494 5.85838 5.43894V11.4922C5.85838 11.7462 5.94642 11.9636 6.12252 12.1444C6.29875 12.325 6.51077 12.4153 6.75858 12.4153ZM10.2265 12.4153C10.4742 12.4153 10.6861 12.325 10.8622 12.1444C11.0381 11.9636 11.1261 11.7462 11.1261 11.4922V5.43894C11.1261 5.18494 11.038 4.96756 10.862 4.78682C10.6857 4.60622 10.4737 4.51592 10.2259 4.51592C9.97821 4.51592 9.76633 4.60622 9.59024 4.78682C9.41428 4.96756 9.32631 5.18494 9.32631 5.43894V11.4922C9.32631 11.7462 9.41442 11.9636 9.59065 12.1444C9.76675 12.325 9.9787 12.4153 10.2265 12.4153Z" fill="#595959"/>
</svg>
