<svg xmlns="http://www.w3.org/2000/svg" width="20" height="20" fill="none"><path fill="#595959" d="M5 14h6c.283 0 .52-.096.713-.287A.968.968 0 0 0 12 13v-2.2l2.775 2.225c.25.2.517.233.8.1.283-.133.425-.358.425-.675v-4.9c0-.317-.142-.542-.425-.675-.283-.133-.55-.1-.8.1L12 9.2V7a.967.967 0 0 0-.287-.713A.968.968 0 0 0 11 6H5a.968.968 0 0 0-.713.287A.968.968 0 0 0 4 7v6c0 .283.096.52.287.713.192.191.43.287.713.287Zm-3 4c-.55 0-1.02-.196-1.412-.587A1.926 1.926 0 0 1 0 16V4c0-.55.196-1.02.588-1.412A1.926 1.926 0 0 1 2 2h16c.55 0 1.02.196 1.413.587C19.804 2.98 20 3.45 20 4v12c0 .55-.196 1.02-.587 1.413A1.926 1.926 0 0 1 18 18H2Zm0-2h16V4H2v12Z"/></svg>