<svg width="16" height="16" viewBox="0 0 16 16" fill="none" xmlns="http://www.w3.org/2000/svg">
<path fill-rule="evenodd" clip-rule="evenodd" d="M6.85023 0.445504C6.98462 0.355915 7.1567 0.345202 7.30116 0.41743L14.3244 3.92905C14.3893 3.93245 14.4539 3.94992 14.5133 3.9817C14.6596 4.06002 14.7509 4.21252 14.7509 4.37851V6.1225C14.7509 6.37106 14.5495 6.57256 14.3009 6.57256C14.0523 6.57256 13.8508 6.37106 13.8508 6.1225V5.26143L9.3502 8.26185L9.35019 14.3097L9.99018 13.8564C10.193 13.7127 10.4739 13.7607 10.6176 13.9635C10.7613 14.1663 10.7133 14.4472 10.5105 14.5909L9.16235 15.5458C9.15405 15.5518 9.14551 15.5575 9.13675 15.5629C9.00406 15.6449 8.83838 15.6523 8.69886 15.5826L1.49785 11.9821C1.34538 11.9058 1.24907 11.75 1.24907 11.5795V4.37851C1.24907 4.22253 1.32983 4.07767 1.46252 3.99566C1.50957 3.96658 1.56078 3.94687 1.61349 3.93666L6.85023 0.445504ZM7.13222 1.33933L13.37 4.45821L12.701 4.90416C12.6497 4.9384 12.6076 4.98138 12.5755 5.02981L10.1649 6.63687C10.1079 6.64787 10.052 6.67016 10.0007 6.70441L8.87102 7.45751L2.71833 4.28192L7.13222 1.33933ZM2.14919 5.00112V11.3014L8.45007 14.4518L8.45007 13.3798L8.45007 13.3782L8.45007 9.78072L8.45007 9.77926V8.25319L2.14919 5.00112Z" fill="#595959"/>
<path d="M14.3009 9.16042C14.5495 9.16042 14.7509 9.36192 14.7509 9.61049V11.3545C14.7509 11.5005 14.6802 11.6374 14.561 11.7217L13.2108 12.6781C13.008 12.8218 12.7271 12.7738 12.5834 12.571C12.4398 12.3682 12.4877 12.0873 12.6906 11.9436L13.8508 11.1217V9.61049C13.8508 9.36192 14.0523 9.16042 14.3009 9.16042Z" fill="#595959"/>
<path fill-rule="evenodd" clip-rule="evenodd" d="M7.30116 0.41743C7.1567 0.345202 6.98462 0.355915 6.85023 0.445504L1.61349 3.93666C1.56078 3.94687 1.50957 3.96658 1.46252 3.99566C1.32983 4.07767 1.24907 4.22253 1.24907 4.37851V11.5795C1.24907 11.75 1.34538 11.9058 1.49785 11.9821L8.69886 15.5826C8.83838 15.6523 9.00406 15.6449 9.13675 15.5629C9.14551 15.5575 9.15405 15.5518 9.16235 15.5458L10.5105 14.5909C10.7133 14.4472 10.7613 14.1663 10.6176 13.9635C10.4739 13.7607 10.193 13.7127 9.99018 13.8564L9.35019 14.3097L9.3502 8.26185L13.8508 5.26143V6.1225C13.8508 6.37106 14.0523 6.57256 14.3009 6.57256C14.5495 6.57256 14.7509 6.37106 14.7509 6.1225V4.37851C14.7509 4.21252 14.6596 4.06002 14.5133 3.9817C14.4539 3.94992 14.3893 3.93245 14.3244 3.92905L7.30116 0.41743ZM14.4314 3.56897L7.46659 0.0865693C7.2034 -0.0450255 6.88988 -0.0255061 6.64504 0.137717L1.46068 3.59396C1.39377 3.61429 1.32897 3.64334 1.26804 3.68099C1.0263 3.8304 0.87915 4.09432 0.87915 4.37851V11.5795C0.87915 11.8901 1.05463 12.174 1.33242 12.3129L8.53343 15.9134C8.78761 16.0405 9.08947 16.0269 9.33121 15.8775C9.34684 15.8679 9.36207 15.8577 9.37688 15.8472C9.37719 15.8469 9.37749 15.8467 9.3778 15.8465L10.7243 14.8928C11.0938 14.631 11.1812 14.1192 10.9194 13.7497C10.6577 13.3801 10.1459 13.2928 9.77636 13.5545L9.72011 13.5944L9.72011 8.45982L13.4809 5.95263V6.1225C13.4809 6.57536 13.848 6.94248 14.3009 6.94248C14.7537 6.94248 15.1209 6.57536 15.1209 6.1225V4.37851C15.1209 4.0761 14.9544 3.79824 14.6878 3.65555C14.6065 3.61202 14.5197 3.58321 14.4314 3.56897ZM8.45007 9.77926V8.25319L2.14919 5.00112V11.3014L8.45007 14.4518L8.45007 13.3798L8.45007 13.3782L8.45007 9.78072L8.45007 9.77926ZM8.08016 9.78126L8.08016 9.7798L8.08015 9.77926L8.08015 8.47854L2.51911 5.60832V11.0727L8.08016 13.8533L8.08015 13.3791L8.08016 13.3782L8.08016 13.3775L8.08016 9.78126ZM7.15879 1.7662L3.44615 4.24129L8.8471 7.02888L9.79548 6.39662C9.86375 6.3511 9.93684 6.317 10.0122 6.29412L12.3179 4.75699C12.368 4.69623 12.4276 4.64189 12.4959 4.59637L12.6344 4.504L7.15879 1.7662ZM7.13222 1.33933L2.71833 4.28192L8.87102 7.45751L10.0007 6.70441C10.052 6.67016 10.1079 6.64787 10.1649 6.63687L12.5755 5.02981C12.6076 4.98138 12.6497 4.9384 12.701 4.90416L13.37 4.45821L7.13222 1.33933ZM14.3009 8.79051C14.7537 8.79051 15.1209 9.15763 15.1209 9.61049V11.3545C15.1209 11.6204 14.9919 11.8699 14.7748 12.0236L13.4247 12.98C13.0551 13.2417 12.5433 13.1544 12.2816 12.7848C12.0198 12.4153 12.1072 11.9035 12.4767 11.6417L13.4809 10.9305V9.61049C13.4809 9.15763 13.848 8.79051 14.3009 8.79051ZM13.8508 11.1217L12.6906 11.9436C12.4877 12.0873 12.4398 12.3682 12.5834 12.571C12.7271 12.7738 13.008 12.8218 13.2108 12.6781L14.561 11.7217C14.6802 11.6374 14.7509 11.5005 14.7509 11.3545V9.61049C14.7509 9.36192 14.5495 9.16042 14.3009 9.16042C14.0523 9.16042 13.8508 9.36192 13.8508 9.61049V11.1217Z" fill="#595959"/>
</svg>
