<svg width="180" height="26" viewBox="0 0 180 26" fill="none" xmlns="http://www.w3.org/2000/svg">
<path d="M31.9615 21.8065L37.6757 1.9241C37.7237 1.77609 37.6276 1.62809 37.4836 1.57875C34.7465 0.592036 31.4333 0 28.4081 0C25.0948 0 21.8296 0.690708 19.2846 1.57875C19.1405 1.62809 19.0925 1.77609 19.0925 1.9241L24.8547 21.8065C24.9028 21.9545 25.0468 22.0531 25.1909 22.0038C26.2473 21.7078 27.2557 21.5598 28.4081 21.5598C29.5605 21.5598 30.5689 21.7078 31.6253 22.0038C31.7694 22.0531 31.9615 21.9545 31.9615 21.8065Z" fill="#00608B"/>
<path d="M23.8464 21.7078L18.6604 3.65084C18.6124 3.50283 18.4203 3.40416 18.2762 3.4535C10.4492 7.10435 6.65578 13.962 6.03154 15.1461C5.98352 15.2448 5.98352 15.3928 6.07956 15.4914C7.18398 16.5275 13.9546 22.7932 16.8837 25.5066C16.9317 25.556 16.9797 25.556 17.0758 25.556H19.1886C19.2846 25.556 19.3326 25.5066 19.3807 25.4573C20.5331 23.9772 21.9737 22.7932 23.6543 22.0038C23.8464 21.9545 23.8944 21.8064 23.8464 21.7078ZM38.588 3.4535C46.415 7.10435 50.2085 13.962 50.8327 15.1461C50.8808 15.2448 50.8808 15.3928 50.7847 15.4914C49.6803 16.5275 42.9097 22.7932 39.9806 25.5066C39.9326 25.556 39.8845 25.556 39.7885 25.556H37.6757C37.5797 25.556 37.5316 25.5066 37.4836 25.4573C36.3312 23.9772 34.8906 22.7932 33.21 22.0038C33.0659 21.9545 33.0179 21.8064 33.0659 21.6584L38.2519 3.60151C38.2519 3.45351 38.444 3.40416 38.588 3.4535Z" fill="#42A599"/>
<path opacity="0.85" d="M90.7841 21.2638C90.9281 21.3131 91.0722 21.3624 91.2643 21.4118C91.4083 21.5104 91.6004 21.6091 91.6964 21.7078C92.0326 22.0531 92.2246 22.4972 92.2246 22.9905C92.2246 23.5332 92.0326 23.9772 91.6964 24.3226C91.6004 24.4213 91.4563 24.5199 91.3603 24.6186C91.2162 24.7173 91.0722 24.7666 90.8801 24.816C90.688 24.8653 90.3999 24.8653 90.0638 24.8653H89.1995V21.1651H90.0638C90.3999 21.2144 90.64 21.2144 90.7841 21.2638ZM90.0158 25.556C90.4479 25.556 90.7361 25.556 90.8801 25.5066C91.0242 25.4573 91.2162 25.408 91.3603 25.3586C91.6484 25.26 91.9365 25.0626 92.1766 24.816C92.4167 24.5693 92.5608 24.3226 92.7048 24.0266C92.8489 23.7306 92.8969 23.3852 92.8969 23.0892C92.8969 22.6452 92.8008 22.2011 92.5608 21.8065C92.3207 21.4118 92.0326 21.1157 91.6484 20.9184C91.2643 20.7211 90.7361 20.6224 90.1118 20.6224H88.4792V25.556H90.0158ZM86.5104 24.4213L83.2452 20.5731H82.669V25.5066H83.3412V21.7078L86.5585 25.5066H87.1827V20.5731H86.5104V24.4213ZM78.8755 23.4345L79.5958 21.6584L80.3641 23.4345H78.8755ZM77.2909 25.556H78.0112L78.6354 24.0759H80.7002L81.3245 25.556H82.0447L79.8839 20.5731H79.4037L77.2909 25.556ZM73.9776 25.556H76.8587V24.9146H74.6979V20.6224H74.0257V25.556H73.9776ZM68.9837 21.2144H70.6163V25.556H71.3366V21.2144H73.0173V20.5731H68.9837V21.2144ZM67.4951 21.7571C67.8313 22.1025 68.0233 22.5465 68.0233 23.0892C68.0233 23.6319 67.8313 24.0759 67.4951 24.4213C67.159 24.7666 66.6788 24.964 66.1506 24.964C65.6224 24.964 65.1903 24.7666 64.8061 24.4213C64.47 24.0759 64.2779 23.6319 64.2779 23.0892C64.2779 22.5465 64.47 22.1025 64.8061 21.7078C65.1422 21.3624 65.6224 21.1651 66.1506 21.1651C66.6788 21.2144 67.111 21.3624 67.4951 21.7571ZM64.2779 21.2638C63.7977 21.7571 63.5576 22.3492 63.5576 23.0892C63.5576 23.8292 63.7977 24.4213 64.2779 24.8653C64.7581 25.3586 65.3823 25.6053 66.1026 25.6053C66.8709 25.6053 67.4951 25.3586 67.9753 24.8653C68.4555 24.3719 68.7436 23.7799 68.7436 23.0399C68.7436 22.2998 68.5035 21.7078 68.0233 21.2144C67.5432 20.7211 66.9189 20.4744 66.1506 20.4744C65.3823 20.5237 64.7581 20.7704 64.2779 21.2638ZM60.9166 24.964C60.3404 24.964 59.9082 24.7666 59.5241 24.4213C59.188 24.0759 58.9959 23.6319 58.9959 23.0892C58.9959 22.5465 59.188 22.1025 59.5241 21.7571C59.8602 21.4118 60.3404 21.2144 60.9166 21.2144C61.4448 21.2144 62.021 21.3624 62.5492 21.7078V20.9677C61.925 20.6717 61.3488 20.5731 60.8686 20.5731C60.1483 20.5731 59.5241 20.8197 58.9959 21.3131C58.5157 21.8065 58.2276 22.3985 58.2276 23.1385C58.2276 23.5825 58.3236 24.0266 58.5637 24.4213C58.8038 24.8159 59.0919 25.112 59.4761 25.3586C59.8602 25.556 60.2924 25.704 60.8686 25.704C61.5409 25.704 62.1171 25.556 62.5973 25.26V24.4706C62.0691 24.7666 61.4928 24.964 60.9166 24.964ZM56.787 24.3226C56.787 24.5199 56.691 24.6679 56.595 24.7666C56.4509 24.9146 56.2588 24.964 56.0668 24.964C55.5866 24.964 55.1544 24.7173 54.7703 24.2239V25.112C55.1544 25.408 55.5866 25.556 56.0668 25.556C56.4989 25.556 56.8351 25.408 57.0751 25.1613C57.3152 24.9146 57.4593 24.5693 57.4593 24.1746C57.4593 23.6319 57.1712 23.1385 56.595 22.7932L56.0668 22.4972C55.8267 22.3492 55.6826 22.2011 55.5386 22.1025C55.4425 21.9545 55.3945 21.8558 55.3945 21.7078C55.3945 21.5598 55.4905 21.4118 55.6346 21.3131C55.7787 21.2144 55.9707 21.1651 56.2108 21.1651C56.595 21.1651 56.9791 21.3131 57.3152 21.6584V20.8691C56.9791 20.6224 56.595 20.5237 56.2108 20.5237C55.7787 20.5237 55.4425 20.6224 55.2024 20.8691C54.9623 21.1158 54.8183 21.4118 54.8183 21.8065C54.8183 22.0531 54.8663 22.2998 55.0104 22.4972C55.1544 22.6945 55.3945 22.8919 55.7306 23.0892L56.2588 23.4345C56.595 23.7306 56.787 24.0266 56.787 24.3226ZM102.212 13.3207H103.845V17.6623H104.517V13.3207H106.198V12.6793H102.164L102.212 13.3207ZM100.628 16.5275L97.3626 12.6793H96.7864V17.6129H97.4586V13.814L100.676 17.6129H101.252V12.6793H100.628V16.5275ZM92.9929 17.6129H95.778V16.9715H93.6652V15.4421H95.6339V14.8008H93.6652V13.2713H95.73V12.63H92.9929V17.6129ZM89.4396 14.7021L87.855 12.6793H87.1827V17.6129H87.855V13.7647L89.3435 15.6888H89.4876L90.9762 13.7647V17.6129H91.6484V12.6793H91.0242L89.4396 14.7021ZM85.2139 16.5275L81.9487 12.6793H81.4205V17.6129H82.0927V13.814L85.31 17.6129H85.8862V12.6793H85.2139V16.5275ZM79.0196 13.814C79.3557 14.1594 79.5478 14.6034 79.5478 15.1461C79.5478 15.6888 79.3557 16.1328 79.0196 16.4782C78.6834 16.8235 78.2033 17.0209 77.675 17.0209C77.1468 17.0209 76.7147 16.8235 76.3305 16.4782C75.9944 16.1328 75.8023 15.6888 75.8023 15.1461C75.8023 14.6034 75.9944 14.1594 76.3305 13.7647C76.6667 13.4194 77.1468 13.222 77.675 13.222C78.2033 13.2714 78.6834 13.4687 79.0196 13.814ZM75.8023 13.3207C75.3221 13.814 75.0821 14.4061 75.0821 15.1461C75.0821 15.8862 75.3221 16.4782 75.8023 16.9222C76.2825 17.4156 76.9068 17.6623 77.627 17.6623C78.3953 17.6623 79.0196 17.4156 79.4998 16.9222C79.9799 16.4289 80.268 15.8368 80.268 15.0968C80.268 14.3567 80.028 13.7647 79.5478 13.2713C79.0676 12.778 78.4433 12.5313 77.675 12.5313C76.9068 12.5806 76.3305 12.8273 75.8023 13.3207ZM72.8252 13.37C72.9692 13.4194 73.0653 13.518 73.1613 13.6167C73.2574 13.7647 73.3054 13.8634 73.3054 14.0607C73.3054 14.2087 73.2574 14.3567 73.2093 14.5047C73.1133 14.6528 73.0173 14.7021 72.9212 14.8008C72.7772 14.8501 72.5371 14.8994 72.201 14.8994H71.9609V13.3207H72.1529C72.441 13.2714 72.6811 13.3207 72.8252 13.37ZM71.8648 17.6129V15.4421H72.0569C72.297 15.4421 72.441 15.4915 72.5371 15.5408C72.6331 15.5901 72.7292 15.6888 72.8732 15.7875C72.9692 15.8862 73.1133 16.0835 73.2574 16.2808L73.4974 16.6755L73.6895 17.0209L73.8336 17.2182C73.8336 17.2676 73.8816 17.2676 73.8816 17.2676L74.0737 17.6129H74.89L74.6499 17.2676C74.5539 17.1195 74.4098 16.9222 74.2657 16.6262C73.9776 16.1822 73.7856 15.8862 73.6415 15.6888C73.4974 15.4915 73.3534 15.3435 73.2093 15.2448C73.4494 15.1461 73.6895 14.9981 73.8336 14.7514C73.9776 14.5541 74.0257 14.3074 74.0257 14.0114C74.0257 13.5674 73.8816 13.2713 73.5935 13.0247C73.3054 12.778 72.9212 12.63 72.441 12.63H71.2406V17.5636L71.8648 17.6129ZM69.1278 17.6129H69.8V12.6793H69.1278V17.6129ZM66.1986 16.1328L64.7581 12.6793H64.0858L66.1506 17.6623H66.2947L68.3115 12.6793H67.6392L66.1986 16.1328ZM62.5973 16.5275L59.332 12.6793H58.7558V17.6129H59.4281V13.814L62.6453 17.6129H63.2215V12.6793H62.5492V16.5275H62.5973ZM54.9623 17.6129H57.7474V16.9715H55.6346V15.4421H57.6034V14.8008H55.6346V13.2713H57.6994V12.63H54.9623V17.6129ZM85.2139 9.12714C84.6377 9.12714 84.2056 8.92979 83.8214 8.58444C83.4853 8.23909 83.2932 7.79508 83.2932 7.25238C83.2932 6.70969 83.4853 6.26566 83.8214 5.92031C84.1575 5.57496 84.6377 5.37761 85.2139 5.37761C85.7421 5.37761 86.3184 5.52562 86.8466 5.87097V5.13093C86.2223 4.83492 85.6461 4.73625 85.1659 4.73625C84.4456 4.73625 83.8214 4.98293 83.2932 5.47629C82.813 5.96965 82.5249 6.56168 82.5249 7.30172C82.5249 7.74574 82.6209 8.18975 82.861 8.58444C83.1011 8.97913 83.3892 9.27516 83.7734 9.52183C84.1575 9.71918 84.5897 9.86718 85.1659 9.86718C85.8382 9.86718 86.4144 9.71917 86.8946 9.42316V8.63378C86.3664 8.9298 85.7902 9.12714 85.2139 9.12714ZM80.7002 9.71918H81.4205V4.78559H80.7482L80.7002 9.71918ZM77.8191 5.42695C77.9632 5.47629 78.0592 5.57496 78.1552 5.67363C78.2513 5.82164 78.2993 5.92031 78.2993 6.11765C78.2993 6.26566 78.2513 6.41368 78.2033 6.56168C78.1072 6.70969 78.0112 6.75902 77.9151 6.85769C77.7711 6.90702 77.531 6.95636 77.1949 6.95636H76.9548V5.37761H77.1468C77.3869 5.37761 77.6751 5.37761 77.8191 5.42695ZM76.8587 9.71918V7.5484H77.0508C77.2909 7.5484 77.435 7.59773 77.531 7.64706C77.627 7.6964 77.7231 7.79507 77.8671 7.89374C77.9632 7.99241 78.1072 8.18976 78.2513 8.3871L78.4914 8.7818L78.6834 9.12714L78.8275 9.32448C78.8275 9.37382 78.8755 9.37382 78.8755 9.37382L79.0676 9.71918H79.8839L79.6438 9.37382C79.5478 9.22581 79.4037 9.02847 79.2597 8.73246C78.9715 8.28844 78.7795 7.99242 78.6354 7.79508C78.4914 7.59774 78.3473 7.44972 78.2033 7.35105C78.4433 7.25237 78.6834 7.10437 78.8275 6.85769C78.9715 6.66034 79.0196 6.41366 79.0196 6.11765C79.0196 5.67363 78.8755 5.37761 78.5874 5.13093C78.2993 4.88425 77.9151 4.73625 77.435 4.73625H76.2345V9.66984L76.8587 9.71918ZM73.7856 5.92031C74.1217 6.26566 74.3138 6.70969 74.3138 7.25238C74.3138 7.79508 74.1217 8.23909 73.7856 8.58444C73.4494 8.92979 72.9692 9.12714 72.441 9.12714C71.9128 9.12714 71.4807 8.92979 71.0965 8.58444C70.7604 8.23909 70.5683 7.79508 70.5683 7.25238C70.5683 6.70969 70.7604 6.26566 71.0965 5.87097C71.4327 5.52562 71.9128 5.32829 72.441 5.32829C72.9692 5.37762 73.4014 5.52562 73.7856 5.92031ZM70.5683 5.42695C70.0881 5.92031 69.848 6.51234 69.848 7.25238C69.848 7.99242 70.0881 8.58445 70.5683 9.02848C71.0485 9.52183 71.6727 9.76851 72.393 9.76851C73.1613 9.76851 73.7856 9.52183 74.2657 9.02848C74.7459 8.53512 75.034 7.94308 75.034 7.20304C75.034 6.46301 74.7939 5.87097 74.3138 5.37761C73.8336 4.88425 73.2093 4.63757 72.441 4.63757C71.6727 4.68691 71.0485 4.93359 70.5683 5.42695ZM65.5744 5.37761H67.207V9.71918H67.8793V5.37761H69.5599V4.73625H65.5744V5.37761ZM64.2779 8.48578C64.2779 8.68312 64.1819 8.83113 64.0858 8.9298C63.9418 9.07781 63.7497 9.12714 63.5576 9.12714C63.0774 9.12714 62.6453 8.88046 62.2611 8.3871V9.27516C62.6453 9.57117 63.0774 9.71918 63.5576 9.71918C63.9898 9.71918 64.3259 9.57116 64.566 9.32448C64.8061 9.0778 64.9502 8.73245 64.9502 8.33776C64.9502 7.79507 64.6621 7.30172 64.0858 6.95636L63.5576 6.66035C63.3175 6.51234 63.1735 6.36434 63.0294 6.26567C62.9334 6.11766 62.8854 6.01898 62.8854 5.87097C62.8854 5.72296 62.9814 5.57496 63.1255 5.47629C63.2695 5.37762 63.4616 5.32829 63.7017 5.32829C64.0858 5.32829 64.47 5.47629 64.8061 5.82165V5.03227C64.47 4.78559 64.0858 4.68691 63.7017 4.68691C63.2695 4.68691 62.9334 4.78559 62.6933 5.03227C62.4532 5.27895 62.3092 5.57496 62.3092 5.96965C62.3092 6.21633 62.3572 6.463 62.5012 6.66035C62.6453 6.85769 62.8854 7.05504 63.2215 7.25238L63.7497 7.59772C64.0858 7.89374 64.2779 8.18976 64.2779 8.48578ZM60.3884 9.71918H61.0607V4.78559H60.3884V9.71918ZM58.3716 6.90703H55.6826V4.78559H55.0104V9.71918H55.6826V7.5484H58.3716V9.71918H59.0439V4.78559H58.3716V6.90703Z" fill="#231F20"/>
<path d="M112.776 3.45349V26" stroke="#231F20" stroke-width="0.2897"/>
<path opacity="0.85" d="M131.792 23.4839L132.512 21.6584L133.28 23.4839H131.792ZM130.159 25.556H130.879L131.504 24.0759H133.568L134.193 25.556H134.913L132.752 20.5237H132.272L130.159 25.556ZM128.382 23.4345C128.527 23.4839 128.671 23.5825 128.767 23.7305C128.863 23.8785 128.911 23.9772 128.911 24.1252C128.911 24.2732 128.863 24.4212 128.767 24.5199C128.671 24.6679 128.575 24.7666 128.431 24.8159C128.286 24.8653 128.046 24.9146 127.662 24.9146H126.99V23.3359H127.662C127.95 23.3852 128.238 23.3852 128.382 23.4345ZM128.479 21.9544C128.479 22.2011 128.382 22.3491 128.238 22.4971C128.094 22.6451 127.806 22.6945 127.47 22.6945H126.99V21.2144H127.566C128.19 21.2144 128.479 21.4611 128.479 21.9544ZM128.863 25.4079C129.103 25.2599 129.295 25.1119 129.439 24.9146C129.583 24.7172 129.631 24.4706 129.631 24.2239C129.631 23.8785 129.535 23.6319 129.295 23.3852C129.103 23.1385 128.815 22.9905 128.431 22.9412C128.911 22.7438 129.151 22.3985 129.151 21.9051C129.151 21.6584 129.103 21.4117 128.959 21.2144C128.863 21.0171 128.671 20.8691 128.431 20.7704C128.19 20.6717 127.902 20.6224 127.47 20.6224H126.222V25.6053H127.854C128.286 25.556 128.623 25.5066 128.863 25.4079ZM122.524 25.556H125.405V24.9146H123.196V20.573H122.524V25.556ZM118.539 23.4839L119.259 21.6584L120.027 23.4839H118.539ZM116.954 25.556H117.674L118.299 24.0759H120.363L120.988 25.556H121.708L119.547 20.5237H119.067L116.954 25.556ZM171.119 17.6129H174V16.9715H171.839V12.63H171.167V17.6129H171.119ZM169.054 17.6129H169.726V12.63H169.054V17.6129ZM165.213 17.6129H168.046V16.9715H165.933V15.4421H167.902V14.8007H165.933V13.2713H167.998V12.63H165.261V17.6129H165.213ZM163.148 14.8007H160.411V12.63H159.739V17.6129H160.411V15.4421H163.148V17.6129H163.82V12.63H163.148V14.8007ZM156.425 13.3207C156.569 13.37 156.713 13.4193 156.905 13.4687C157.049 13.5674 157.242 13.666 157.338 13.7647C157.674 14.11 157.866 14.5541 157.866 15.0968C157.866 15.6395 157.674 16.0835 157.338 16.4288C157.242 16.5275 157.098 16.6262 157.001 16.7248C156.857 16.8235 156.713 16.8729 156.521 16.9222C156.329 16.9715 156.041 16.9715 155.705 16.9715H154.793V13.2713H155.657C156.041 13.2713 156.281 13.2713 156.425 13.3207ZM155.657 17.6129C156.089 17.6129 156.377 17.6129 156.521 17.5636C156.665 17.5142 156.857 17.4649 157.001 17.4156C157.338 17.3169 157.578 17.1195 157.818 16.8729C158.058 16.6262 158.25 16.3795 158.346 16.0835C158.49 15.7875 158.538 15.4421 158.538 15.1461C158.538 14.7021 158.442 14.258 158.202 13.8634C157.962 13.4687 157.674 13.1727 157.29 12.9753C156.905 12.778 156.377 12.6793 155.705 12.6793H154.072V17.6622H155.657V17.6129ZM152.056 17.6129H152.728V12.63H152.056V17.6129ZM148.118 15.4914L148.838 13.666L149.607 15.4914H148.118ZM146.533 17.6129H147.254L147.878 16.1328H149.943L150.567 17.6129H151.287L149.126 12.5806H148.646L146.533 17.6129ZM144.133 13.3207C144.277 13.37 144.373 13.4687 144.469 13.5673C144.565 13.7154 144.613 13.814 144.613 14.0114C144.613 14.1594 144.565 14.3074 144.517 14.4554C144.421 14.6034 144.325 14.6527 144.229 14.7514C144.085 14.8007 143.844 14.8501 143.508 14.8501H143.22V13.2713H143.412C143.748 13.222 143.988 13.2713 144.133 13.3207ZM143.172 17.6129V15.4421H143.364C143.604 15.4421 143.748 15.4914 143.844 15.5408C143.94 15.5901 144.036 15.6888 144.181 15.7875C144.277 15.8861 144.421 16.0835 144.565 16.2808L144.805 16.6755L144.997 17.0209L145.141 17.2182C145.141 17.2675 145.189 17.2675 145.189 17.2675L145.381 17.6129H146.197L145.957 17.2675C145.861 17.1195 145.717 16.9222 145.573 16.6262C145.285 16.1822 145.093 15.8861 144.949 15.6888C144.805 15.4915 144.661 15.3434 144.517 15.2448C144.805 15.1461 144.997 14.9981 145.141 14.7514C145.285 14.5541 145.333 14.3074 145.333 14.0114C145.333 13.5673 145.189 13.2713 144.901 12.9753C144.613 12.7286 144.229 12.5806 143.748 12.5806H142.548V17.5636L143.172 17.6129ZM139.139 13.3207C139.283 13.37 139.427 13.4193 139.619 13.4687C139.763 13.5674 139.955 13.666 140.051 13.7647C140.387 14.11 140.579 14.5541 140.579 15.0968C140.579 15.6395 140.387 16.0835 140.051 16.4288C139.955 16.5275 139.811 16.6262 139.715 16.7248C139.571 16.8235 139.427 16.8729 139.235 16.9222C139.043 16.9715 138.754 16.9715 138.418 16.9715H137.506V13.2713H138.37C138.754 13.2713 138.995 13.2713 139.139 13.3207ZM138.37 17.6129C138.802 17.6129 139.091 17.6129 139.235 17.5636C139.379 17.5142 139.571 17.4649 139.715 17.4156C140.051 17.3169 140.291 17.1195 140.531 16.8729C140.771 16.6262 140.963 16.3795 141.059 16.0835C141.203 15.7875 141.251 15.4421 141.251 15.1461C141.251 14.7021 141.155 14.258 140.915 13.8634C140.675 13.4687 140.387 13.1727 140.003 12.9753C139.619 12.778 139.091 12.6793 138.418 12.6793H136.786V17.6622H138.37V17.6129ZM134.817 14.8007H132.08V12.63H131.408V17.6129H132.08V15.4421H134.817V17.6129H135.489V12.63H134.817V14.8007ZM128.527 17.0209C127.95 17.0209 127.518 16.8235 127.134 16.4782C126.75 16.1328 126.606 15.6888 126.606 15.1461C126.606 14.6034 126.798 14.1594 127.134 13.814C127.518 13.4687 127.95 13.2713 128.527 13.2713C129.055 13.2713 129.631 13.4193 130.207 13.7647V12.9753C129.583 12.6793 129.007 12.5806 128.527 12.5806C127.806 12.5806 127.182 12.8273 126.654 13.3207C126.174 13.814 125.886 14.4061 125.886 15.1461C125.886 15.5901 125.982 16.0341 126.222 16.4288C126.462 16.8235 126.75 17.1195 127.134 17.3662C127.518 17.6129 127.95 17.7116 128.527 17.7116C129.199 17.7116 129.775 17.5635 130.303 17.2675V16.4782C129.679 16.8235 129.103 17.0209 128.527 17.0209ZM122.38 15.4914L123.1 13.666L123.869 15.4914H122.38ZM120.796 17.6129H121.516L122.14 16.1328H124.205L124.829 17.6129H125.549L123.389 12.5806H122.908L120.796 17.6129ZM117.482 17.6129H120.315V16.9715H118.203V15.4421H120.171V14.8007H118.203V13.2713H120.267V12.63H117.53V17.6129H117.482ZM167.518 5.32827C167.662 5.3776 167.806 5.42693 167.998 5.47627C168.142 5.57494 168.334 5.67362 168.43 5.77229C168.766 6.11764 168.958 6.56165 168.958 7.10435C168.958 7.64704 168.766 8.09107 168.43 8.43642C168.334 8.53509 168.19 8.63377 168.094 8.73244C167.95 8.83111 167.806 8.88044 167.614 8.92978C167.421 8.97911 167.133 8.97912 166.797 8.97912H165.933V5.27893H166.797C167.133 5.27893 167.373 5.32827 167.518 5.32827ZM166.749 9.62048C167.181 9.62048 167.469 9.62047 167.614 9.57114C167.758 9.5218 167.95 9.47247 168.094 9.42314C168.43 9.32447 168.67 9.12712 168.91 8.88044C169.15 8.63376 169.342 8.38708 169.438 8.09106C169.582 7.79505 169.63 7.4497 169.63 7.15369C169.63 6.70966 169.534 6.26564 169.294 5.87095C169.054 5.47626 168.766 5.18025 168.382 4.98291C167.998 4.78557 167.469 4.68689 166.797 4.68689H165.165V9.66982H166.749V9.62048ZM163.148 6.80834H160.411V4.63755H159.739V9.62048H160.411V7.4497H163.148V9.62048H163.82V4.63755H163.148V6.80834ZM156.905 9.02846C156.329 9.02846 155.897 8.83111 155.513 8.48576C155.129 8.14041 154.985 7.69638 154.985 7.15369C154.985 6.61099 155.177 6.16698 155.513 5.82163C155.897 5.47628 156.329 5.27893 156.905 5.27893C157.434 5.27893 158.01 5.42694 158.586 5.77229V4.98291C157.962 4.6869 157.386 4.58823 156.905 4.58823C156.185 4.58823 155.561 4.83491 155.033 5.32827C154.553 5.82163 154.264 6.41365 154.264 7.15369C154.264 7.59771 154.36 8.04173 154.601 8.43642C154.841 8.83111 155.129 9.12712 155.513 9.3738C155.897 9.62048 156.329 9.71916 156.905 9.71916C157.578 9.71916 158.154 9.57115 158.682 9.27514V8.48576C158.058 8.88045 157.482 9.02846 156.905 9.02846ZM150.759 7.54838L151.479 5.72295L152.248 7.54838H150.759ZM149.174 9.66982H149.895L150.519 8.18974H152.584L153.208 9.66982H153.928L151.767 4.63755H151.287L149.174 9.66982ZM145.861 9.62048H148.694V8.97912H146.581V7.4497H148.55V6.80834H146.581V5.27893H148.646V4.63755H145.909V9.62048H145.861ZM143.844 8.5351L140.579 4.68689H140.003V9.66982H140.675V5.82163L143.94 9.66982H144.517V4.68689H143.844V8.5351ZM138.034 8.5351L134.769 4.68689H134.193V9.66982H134.865V5.82163L138.13 9.66982H138.706V4.68689H138.034V8.5351ZM132.128 9.66982H132.8V4.68689H132.128V9.66982ZM128.142 7.54838L128.863 5.72295L129.631 7.54838H128.142ZM126.558 9.66982H127.278L127.902 8.18974H129.967L130.591 9.66982H131.312L129.151 4.63755H128.671L126.558 9.66982ZM124.157 5.32827C124.301 5.3776 124.397 5.47628 124.493 5.57495C124.589 5.67362 124.637 5.82162 124.637 6.01897C124.637 6.16697 124.589 6.31498 124.541 6.46299C124.445 6.61099 124.349 6.66033 124.253 6.759C124.109 6.80834 123.869 6.85767 123.533 6.85767H123.293V5.27893H123.485C123.773 5.27893 124.013 5.27893 124.157 5.32827ZM123.245 9.66982V7.49904H123.437C123.677 7.49904 123.821 7.54837 123.917 7.5977C124.013 7.64704 124.109 7.74571 124.253 7.84438C124.349 7.94306 124.493 8.1404 124.637 8.33774L124.877 8.73244L125.069 9.07778L125.213 9.27514C125.213 9.32447 125.261 9.32446 125.261 9.32446L125.453 9.66982H126.27L126.03 9.32446C125.934 9.17645 125.789 8.97911 125.645 8.6831C125.357 8.23908 125.165 7.94306 125.021 7.74572C124.877 7.54838 124.733 7.40037 124.589 7.3017C124.829 7.20303 125.069 7.05502 125.213 6.80834C125.357 6.611 125.405 6.36432 125.405 6.06831C125.405 5.62428 125.261 5.32826 124.973 5.03225C124.685 4.78557 124.301 4.63755 123.821 4.63755H122.62V9.62048L123.245 9.66982ZM118.443 3.20682L119.259 4.29221H119.643L119.163 3.20682H118.443ZM118.539 7.54838L119.259 5.72295L120.027 7.54838H118.539ZM116.954 9.66982H117.674L118.299 8.18974H120.363L120.988 9.66982H121.708L119.547 4.63755H119.067L116.954 9.66982Z" fill="#231F20"/>
</svg>
