<svg xmlns="http://www.w3.org/2000/svg" width="20" height="20" fill="none"><path fill="#595959" d="M1.139 13.694a1.008 1.008 0 0 1-.43-.875 1.08 1.08 0 0 1 .458-.875 1.11 1.11 0 0 1 1.333 0L10 17.75l7.5-5.806a1.11 1.11 0 0 1 1.333 0c.297.223.45.514.459.875.009.362-.135.653-.43.875l-7.5 5.834A2.172 2.172 0 0 1 10 20c-.5 0-.954-.157-1.361-.472l-7.5-5.834Zm7.5.223L2.25 8.944c-.574-.444-.861-1.027-.861-1.75 0-.722.287-1.305.861-1.75L8.639.472A2.172 2.172 0 0 1 10 0c.5 0 .954.157 1.361.472l6.389 4.972c.574.445.861 1.028.861 1.75 0 .723-.287 1.306-.861 1.75l-6.389 4.973a2.172 2.172 0 0 1-1.361.472c-.5 0-.954-.157-1.361-.472ZM10 12.139l6.389-4.945L10 2.25 3.611 7.194 10 12.14Z"/></svg>