<svg width="16" height="16" viewBox="0 0 16 16" fill="none" xmlns="http://www.w3.org/2000/svg">
<path d="M2.19413 16C1.5846 16 1.06649 15.7867 0.639807 15.3602C0.213269 14.9335 0 14.4154 0 13.8059C0 13.3142 0.144812 12.8791 0.434437 12.5004C0.724208 12.1218 1.09136 11.86 1.53589 11.7149V4.28513C1.09136 4.14002 0.724208 3.87819 0.434437 3.49963C0.144812 3.12092 0 2.68576 0 2.19413C0 1.5846 0.213269 1.06649 0.639807 0.639806C1.06649 0.213268 1.5846 0 2.19413 0C2.68576 0 3.12092 0.144812 3.49963 0.434437C3.87819 0.724207 4.14002 1.09136 4.28513 1.53589H11.7149C11.8511 1.09136 12.1091 0.724207 12.489 0.434437C12.8688 0.144812 13.3078 0 13.8059 0C14.4154 0 14.9335 0.213268 15.3602 0.639806C15.7867 1.06649 16 1.5846 16 2.19413C16 2.69219 15.8552 3.13116 15.5656 3.51104C15.2758 3.89091 14.9086 4.14894 14.4641 4.28513V11.7149C14.9086 11.86 15.2758 12.1218 15.5656 12.5004C15.8552 12.8791 16 13.3142 16 13.8059C16 14.4154 15.7867 14.9335 15.3602 15.3602C14.9335 15.7867 14.4154 16 13.8059 16C13.3142 16 12.8791 15.8552 12.5004 15.5656C12.1218 15.2758 11.86 14.9086 11.7149 14.4641H4.28513C4.14002 14.9086 3.87819 15.2758 3.49963 15.5656C3.12092 15.8552 2.68576 16 2.19413 16ZM2.19413 3.07178C2.44279 3.07178 2.65123 2.98767 2.81945 2.81945C2.98767 2.65123 3.07178 2.44279 3.07178 2.19413C3.07178 1.94546 2.98767 1.73702 2.81945 1.5688C2.65123 1.40058 2.44279 1.31648 2.19413 1.31648C1.94546 1.31648 1.73702 1.40058 1.5688 1.5688C1.40058 1.73702 1.31648 1.94546 1.31648 2.19413C1.31648 2.44279 1.40058 2.65123 1.5688 2.81945C1.73702 2.98767 1.94546 3.07178 2.19413 3.07178ZM13.8059 3.07178C14.0545 3.07178 14.263 2.98767 14.4312 2.81945C14.5994 2.65123 14.6835 2.44279 14.6835 2.19413C14.6835 1.94546 14.5994 1.73702 14.4312 1.5688C14.263 1.40058 14.0545 1.31648 13.8059 1.31648C13.5572 1.31648 13.3488 1.40058 13.1805 1.5688C13.0123 1.73702 12.9282 1.94546 12.9282 2.19413C12.9282 2.44279 13.0123 2.65123 13.1805 2.81945C13.3488 2.98767 13.5572 3.07178 13.8059 3.07178ZM4.28513 13.1476H11.7149C11.824 12.8011 12.0035 12.503 12.2533 12.2533C12.503 12.0035 12.8011 11.824 13.1476 11.7149V4.28513C12.8011 4.18171 12.5015 4.00369 12.2489 3.75108C11.9963 3.49846 11.8183 3.19889 11.7149 2.85236H4.28513C4.17601 3.19889 3.99653 3.497 3.74669 3.74669C3.497 3.99653 3.19889 4.17601 2.85236 4.28513V11.7149C3.19889 11.824 3.497 12.0035 3.74669 12.2533C3.99653 12.503 4.17601 12.8011 4.28513 13.1476ZM13.8059 14.6835C14.0545 14.6835 14.263 14.5994 14.4312 14.4312C14.5994 14.263 14.6835 14.0545 14.6835 13.8059C14.6835 13.5572 14.5994 13.3488 14.4312 13.1805C14.263 13.0123 14.0545 12.9282 13.8059 12.9282C13.5572 12.9282 13.3488 13.0123 13.1805 13.1805C13.0123 13.3488 12.9282 13.5572 12.9282 13.8059C12.9282 14.0545 13.0123 14.263 13.1805 14.4312C13.3488 14.5994 13.5572 14.6835 13.8059 14.6835ZM2.19413 14.6835C2.44279 14.6835 2.65123 14.5994 2.81945 14.4312C2.98767 14.263 3.07178 14.0545 3.07178 13.8059C3.07178 13.5572 2.98767 13.3488 2.81945 13.1805C2.65123 13.0123 2.44279 12.9282 2.19413 12.9282C1.94546 12.9282 1.73702 13.0123 1.5688 13.1805C1.40058 13.3488 1.31648 13.5572 1.31648 13.8059C1.31648 14.0545 1.40058 14.263 1.5688 14.4312C1.73702 14.5994 1.94546 14.6835 2.19413 14.6835Z" fill="#595959"/>
</svg>
