<svg width="16" height="16" viewBox="0 0 16 16" fill="none" xmlns="http://www.w3.org/2000/svg">
<path d="M1.6 12.8C1.16 12.8 0.783333 12.6433 0.47 12.33C0.156667 12.0167 0 11.64 0 11.2V4.8C0 4.36 0.156667 3.98333 0.47 3.67C0.783333 3.35667 1.16 3.2 1.6 3.2H14.4C14.84 3.2 15.2167 3.35667 15.53 3.67C15.8433 3.98333 16 4.36 16 4.8V11.2C16 11.64 15.8433 12.0167 15.53 12.33C15.2167 12.6433 14.84 12.8 14.4 12.8H1.6ZM1.6 11.2H14.4V4.8H12V7.2C12 7.42667 11.9233 7.61667 11.77 7.77C11.6167 7.92333 11.4267 8 11.2 8C10.9733 8 10.7833 7.92333 10.63 7.77C10.4767 7.61667 10.4 7.42667 10.4 7.2V4.8H8.8V7.2C8.8 7.42667 8.72333 7.61667 8.57 7.77C8.41667 7.92333 8.22667 8 8 8C7.77333 8 7.58333 7.92333 7.43 7.77C7.27667 7.61667 7.2 7.42667 7.2 7.2V4.8H5.6V7.2C5.6 7.42667 5.52333 7.61667 5.37 7.77C5.21667 7.92333 5.02667 8 4.8 8C4.57333 8 4.38333 7.92333 4.23 7.77C4.07667 7.61667 4 7.42667 4 7.2V4.8H1.6V11.2Z" fill="#595959"/>
</svg>
