<svg xmlns="http://www.w3.org/2000/svg" width="20" height="20" fill="none"><path fill="#595959" d="m6.375 14.25 5.05-1.45c.333-.1.62-.27.862-.513.242-.241.413-.529.513-.862l1.45-5.05a.473.473 0 0 0-.137-.487.473.473 0 0 0-.488-.138L8.575 7.2c-.333.1-.62.27-.862.513-.242.241-.413.529-.513.862l-1.45 5.05a.473.473 0 0 0 .138.488.473.473 0 0 0 .487.137ZM10 11.5c-.417 0-.77-.146-1.062-.437A1.447 1.447 0 0 1 8.5 10c0-.417.146-.77.438-1.062A1.447 1.447 0 0 1 10 8.5c.417 0 .77.146 1.063.438.291.291.437.645.437 1.062 0 .417-.146.77-.437 1.063A1.446 1.446 0 0 1 10 11.5Zm0 8.5a9.738 9.738 0 0 1-3.9-.788 10.099 10.099 0 0 1-3.175-2.137c-.9-.9-1.612-1.958-2.137-3.175A9.738 9.738 0 0 1 0 10c0-1.383.263-2.683.788-3.9a10.099 10.099 0 0 1 2.137-3.175c.9-.9 1.958-1.612 3.175-2.137A9.738 9.738 0 0 1 10 0c1.383 0 2.683.263 3.9.788a10.098 10.098 0 0 1 3.175 2.137c.9.9 1.613 1.958 2.137 3.175A9.738 9.738 0 0 1 20 10a9.738 9.738 0 0 1-.788 3.9 10.098 10.098 0 0 1-2.137 3.175c-.9.9-1.958 1.613-3.175 2.137A9.738 9.738 0 0 1 10 20Zm0-2c2.217 0 4.104-.78 5.663-2.338C17.22 14.105 18 12.218 18 10s-.78-4.104-2.338-5.662C14.105 2.779 12.218 2 10 2s-4.104.78-5.662 2.338C2.779 5.896 2 7.783 2 10s.78 4.104 2.338 5.663C5.896 17.22 7.783 18 10 18Z"/></svg>